<svg width="26" height="32" viewBox="0 0 26 32" fill="none" xmlns="http://www.w3.org/2000/svg">
<path opacity="0.12" d="M0 7.94509C0 6.82214 0 6.26066 0.19153 5.69156C0.345508 5.23405 0.670942 4.69246 1.00263 4.34173C1.41521 3.90546 1.84779 3.67548 2.71293 3.21552C5.34281 1.81732 9.44485 0 13 0C16.5552 0 20.6572 1.81732 23.2871 3.21552C24.1522 3.67548 24.5848 3.90546 24.9974 4.34173C25.3291 4.69246 25.6545 5.23405 25.8085 5.69156C26 6.26066 26 6.82214 26 7.94509V18.5826C26 20.5582 26 21.546 25.7134 22.5408C25.4786 23.3557 25.0007 24.3023 24.4844 24.9751C23.8541 25.7965 23.1516 26.3148 21.7467 27.3516C18.7778 29.5425 15.0015 32 13 32C10.9985 32 7.2222 29.5425 4.25327 27.3516C2.84837 26.3148 2.14592 25.7965 1.5156 24.9751C0.999343 24.3023 0.521412 23.3557 0.286643 22.5408C0 21.546 0 20.5582 0 18.5826V7.94509Z" fill="white"/>
</svg>