<svg width="375" height="218" viewBox="0 0 375 218" fill="none" xmlns="http://www.w3.org/2000/svg">
<rect width="375" height="218" fill="#505050"/>
<path opacity="0.12" fill-rule="evenodd" clip-rule="evenodd" d="M194.667 105.667C196.508 105.667 198 104.174 198 102.333C198 100.492 196.508 99 194.667 99C192.826 99 191.333 100.492 191.333 102.333C191.333 104.174 192.826 105.667 194.667 105.667ZM193.915 116.105L192.144 117.877L186.77 112.661C185.449 111.377 184.788 110.736 184.032 110.499C183.366 110.29 182.653 110.296 181.99 110.514C181.238 110.762 180.587 111.413 179.284 112.716L172.223 119.777C172.285 119.924 172.352 120.066 172.423 120.207C173.382 122.088 174.912 123.618 176.793 124.577C178.933 125.667 181.733 125.667 187.333 125.667H188.667H188.667C194.056 125.667 196.852 125.667 198.962 124.695C199.044 124.657 199.126 124.618 199.207 124.577C201.088 123.618 202.618 122.088 203.577 120.207C203.803 119.763 203.982 119.29 204.124 118.77L201.459 116.105C200.139 114.785 199.479 114.124 198.718 113.877C198.048 113.66 197.327 113.66 196.657 113.877C195.896 114.124 195.236 114.785 193.915 116.105Z" fill="white"/>
<path fill-rule="evenodd" clip-rule="evenodd" d="M187.277 91.0833H187.333H188.667H188.723C191.476 91.0833 193.618 91.0833 195.336 91.2237C197.081 91.3663 198.499 91.6598 199.774 92.3095C201.891 93.3881 203.612 95.1091 204.69 97.226C205.34 98.5011 205.634 99.9188 205.776 101.664C205.917 103.382 205.917 105.524 205.917 108.277V108.333V109.667V109.723C205.917 112.476 205.917 114.618 205.776 116.336C205.634 118.081 205.34 119.499 204.69 120.774C203.612 122.891 201.891 124.612 199.774 125.69C198.499 126.34 197.081 126.634 195.336 126.776C193.618 126.917 191.476 126.917 188.723 126.917H188.667H187.333H187.277C184.524 126.917 182.382 126.917 180.664 126.776C178.919 126.634 177.501 126.34 176.226 125.69C174.109 124.612 172.388 122.891 171.31 120.774C170.66 119.499 170.366 118.081 170.224 116.336C170.083 114.618 170.083 112.476 170.083 109.723V109.667V108.333V108.277C170.083 105.524 170.083 103.382 170.224 101.664C170.366 99.9188 170.66 98.5011 171.31 97.226C172.388 95.1091 174.109 93.3881 176.226 92.3095C177.501 91.6598 178.919 91.3663 180.664 91.2237C182.382 91.0833 184.524 91.0833 187.277 91.0833ZM180.867 93.7154C179.277 93.8454 178.225 94.0968 177.361 94.537C175.715 95.3759 174.376 96.7145 173.537 98.3609C173.097 99.2249 172.845 100.277 172.715 101.867C172.584 103.472 172.583 105.512 172.583 108.333V109.667C172.583 112.488 172.584 114.528 172.715 116.133C172.753 116.588 172.8 116.999 172.858 117.374L178.4 111.832L178.436 111.797L178.436 111.796C179.057 111.175 179.575 110.657 180.034 110.267C180.513 109.86 181.006 109.522 181.599 109.327C182.509 109.027 183.491 109.019 184.406 109.306C185.001 109.493 185.5 109.823 185.984 110.223C186.449 110.606 186.975 111.117 187.605 111.729L187.641 111.764L192.131 116.123L193.032 115.222L193.067 115.186L193.067 115.186C193.697 114.556 194.223 114.03 194.687 113.636C195.172 113.225 195.671 112.883 196.271 112.688C197.192 112.389 198.183 112.389 199.104 112.688C199.704 112.883 200.203 113.225 200.688 113.636C201.152 114.03 201.677 114.555 202.307 115.185L202.343 115.221L203.282 116.16L203.285 116.133C203.416 114.528 203.417 112.488 203.417 109.667V108.333C203.417 105.512 203.416 103.472 203.285 101.867C203.155 100.277 202.903 99.2249 202.463 98.3609C201.624 96.7145 200.286 95.3759 198.639 94.537C197.775 94.0968 196.723 93.8454 195.133 93.7154C193.528 93.5843 191.488 93.5833 188.667 93.5833H187.333C184.512 93.5833 182.472 93.5843 180.867 93.7154ZM177.361 123.463C175.84 122.688 174.582 121.486 173.737 120.01C173.789 119.972 173.838 119.93 173.884 119.884L180.168 113.6C180.834 112.934 181.281 112.488 181.653 112.172C182.014 111.865 182.222 111.754 182.382 111.701C182.796 111.565 183.242 111.561 183.658 111.692C183.818 111.742 184.028 111.851 184.394 112.152C184.77 112.462 185.224 112.902 185.9 113.557L191.266 118.768L196.602 124.104C196.167 124.18 195.682 124.24 195.133 124.285C193.528 124.416 191.488 124.417 188.667 124.417H187.333C184.512 124.417 182.472 124.416 180.867 124.285C179.277 124.155 178.225 123.903 177.361 123.463ZM202.463 119.639C201.72 121.098 200.585 122.315 199.19 123.157L193.911 117.877L194.799 116.989C195.474 116.314 195.928 115.862 196.305 115.542C196.671 115.231 196.883 115.118 197.044 115.066C197.462 114.93 197.913 114.93 198.331 115.066C198.492 115.118 198.704 115.231 199.07 115.542C199.447 115.862 199.9 116.314 200.575 116.988L202.699 119.112C202.627 119.297 202.548 119.471 202.463 119.639ZM192.583 102.333C192.583 101.183 193.516 100.25 194.667 100.25C195.817 100.25 196.75 101.183 196.75 102.333C196.75 103.484 195.817 104.417 194.667 104.417C193.516 104.417 192.583 103.484 192.583 102.333ZM194.667 97.75C192.135 97.75 190.083 99.802 190.083 102.333C190.083 104.865 192.135 106.917 194.667 106.917C197.198 106.917 199.25 104.865 199.25 102.333C199.25 99.802 197.198 97.75 194.667 97.75Z" fill="white"/>
</svg>
