<svg width="375" height="120" viewBox="0 0 375 120" fill="none" xmlns="http://www.w3.org/2000/svg">
<rect width="375" height="120" fill="#505050"/>
<path opacity="0.12" fill-rule="evenodd" clip-rule="evenodd" d="M194.667 56.6667C196.508 56.6667 198 55.1743 198 53.3333C198 51.4924 196.508 50 194.667 50C192.826 50 191.333 51.4924 191.333 53.3333C191.333 55.1743 192.826 56.6667 194.667 56.6667ZM193.915 67.1054L192.144 68.8773L186.77 63.6606C185.449 62.3775 184.788 61.7359 184.032 61.4988C183.366 61.2902 182.653 61.2955 181.99 61.5139C181.238 61.7621 180.587 62.4134 179.284 63.7159L172.223 70.7772C172.285 70.9235 172.352 71.0665 172.423 71.2066C173.382 73.0882 174.912 74.618 176.793 75.5767C178.933 76.6667 181.733 76.6667 187.333 76.6667H188.667H188.667C194.056 76.6667 196.852 76.6667 198.962 75.6954C199.044 75.6574 199.126 75.6178 199.207 75.5767C201.088 74.618 202.618 73.0882 203.577 71.2066C203.803 70.7626 203.982 70.2901 204.124 69.7701L201.459 67.1046C200.139 65.7845 199.479 65.1245 198.718 64.8772C198.048 64.6597 197.327 64.6597 196.657 64.8772C195.896 65.1245 195.236 65.7848 193.915 67.1054Z" fill="white"/>
<path fill-rule="evenodd" clip-rule="evenodd" d="M187.277 42.0833H187.333H188.667H188.723C191.476 42.0833 193.618 42.0833 195.336 42.2237C197.081 42.3663 198.499 42.6598 199.774 43.3095C201.891 44.3881 203.612 46.1091 204.69 48.2259C205.34 49.5011 205.634 50.9187 205.776 52.6636C205.917 54.382 205.917 56.5244 205.917 59.2767V59.3333V60.6667V60.7233C205.917 63.4756 205.917 65.618 205.776 67.3364C205.634 69.0813 205.34 70.4989 204.69 71.7741C203.612 73.8909 201.891 75.6119 199.774 76.6905C198.499 77.3402 197.081 77.6337 195.336 77.7763C193.618 77.9167 191.476 77.9167 188.723 77.9167H188.667H187.333H187.277C184.524 77.9167 182.382 77.9167 180.664 77.7763C178.919 77.6337 177.501 77.3402 176.226 76.6905C174.109 75.6119 172.388 73.8909 171.31 71.7741C170.66 70.4989 170.366 69.0813 170.224 67.3364C170.083 65.618 170.083 63.4756 170.083 60.7232V60.6667V59.3333V59.2768C170.083 56.5244 170.083 54.382 170.224 52.6636C170.366 50.9187 170.66 49.5011 171.31 48.2259C172.388 46.1091 174.109 44.3881 176.226 43.3095C177.501 42.6598 178.919 42.3663 180.664 42.2237C182.382 42.0833 184.524 42.0833 187.277 42.0833ZM180.867 44.7154C179.277 44.8453 178.225 45.0968 177.361 45.537C175.714 46.3759 174.376 47.7145 173.537 49.3609C173.097 50.2249 172.845 51.2769 172.715 52.8671C172.584 54.472 172.583 56.5124 172.583 59.3333V60.6667C172.583 63.4876 172.584 65.528 172.715 67.1329C172.753 67.5879 172.8 67.9988 172.858 68.3739L178.4 62.8321L178.436 62.7965L178.436 62.7964C179.057 62.1754 179.575 61.6567 180.034 61.267C180.513 60.8603 181.006 60.5223 181.599 60.3268C182.509 60.0265 183.491 60.0193 184.406 60.3061C185.001 60.4928 185.5 60.8234 185.984 61.2231C186.449 61.606 186.975 62.117 187.605 62.7288L187.641 62.7638L192.131 67.1225L193.032 66.2215L193.067 66.1856L193.067 66.1856C193.697 65.5558 194.223 65.0302 194.687 64.6359C195.172 64.2247 195.671 63.8833 196.271 63.6884C197.192 63.3893 198.183 63.3893 199.104 63.6884C199.704 63.8833 200.203 64.2246 200.688 64.6357C201.152 65.0299 201.677 65.5553 202.307 66.1849L202.343 66.2207L203.282 67.1604L203.285 67.1329C203.416 65.528 203.417 63.4876 203.417 60.6667V59.3333C203.417 56.5124 203.416 54.472 203.285 52.8671C203.155 51.2769 202.903 50.2249 202.463 49.3609C201.624 47.7145 200.286 46.3759 198.639 45.537C197.775 45.0968 196.723 44.8453 195.133 44.7154C193.528 44.5843 191.488 44.5833 188.667 44.5833H187.333C184.512 44.5833 182.472 44.5843 180.867 44.7154ZM177.361 74.463C175.84 73.6879 174.582 72.4864 173.737 71.0097C173.788 70.9721 173.838 70.9302 173.884 70.8839L180.168 64.5998C180.834 63.9341 181.281 63.4882 181.653 63.1721C182.014 62.8655 182.222 62.7537 182.382 62.701C182.796 62.5645 183.242 62.5612 183.658 62.6916C183.818 62.7419 184.028 62.8506 184.394 63.1518C184.77 63.4625 185.224 63.9016 185.9 64.5575L191.266 69.7678L196.602 75.1037C196.167 75.1803 195.682 75.2397 195.133 75.2846C193.528 75.4157 191.488 75.4167 188.667 75.4167H187.333C184.512 75.4167 182.472 75.4157 180.867 75.2846C179.277 75.1546 178.225 74.9032 177.361 74.463ZM202.463 70.6391C201.72 72.0976 200.585 73.3145 199.19 74.1565L193.911 68.8773L194.799 67.9893C195.474 67.3144 195.928 66.8621 196.305 66.5417C196.671 66.2308 196.883 66.1183 197.044 66.066C197.462 65.9301 197.913 65.9301 198.331 66.066C198.492 66.1184 198.704 66.2308 199.07 66.5415C199.447 66.8617 199.9 67.3138 200.575 67.9885L202.699 70.1121C202.627 70.2966 202.548 70.4714 202.463 70.6391ZM192.583 53.3333C192.583 52.1827 193.516 51.25 194.667 51.25C195.817 51.25 196.75 52.1827 196.75 53.3333C196.75 54.4839 195.817 55.4167 194.667 55.4167C193.516 55.4167 192.583 54.4839 192.583 53.3333ZM194.667 48.75C192.135 48.75 190.083 50.802 190.083 53.3333C190.083 55.8646 192.135 57.9167 194.667 57.9167C197.198 57.9167 199.25 55.8646 199.25 53.3333C199.25 50.802 197.198 48.75 194.667 48.75Z" fill="white"/>
</svg>
